<svg width="166" height="30" viewBox="0 0 166 30" fill="none" xmlns="http://www.w3.org/2000/svg">
<path d="M22.416 0H6.29086C5.92242 0 5.62374 0.298676 5.62374 0.667111V5.12341C5.62374 5.39974 5.39974 5.62374 5.12341 5.62374H0.667111C0.298676 5.62374 0 5.92242 0 6.29086V22.416C0 22.7698 0.14057 23.1092 0.390784 23.3594L6.64057 29.6092C6.89079 29.8594 7.23015 30 7.58401 30H23.7091C24.0776 30 24.3763 29.7013 24.3763 29.3329V24.8766C24.3763 24.6003 24.6003 24.3763 24.8766 24.3763H29.3329C29.7013 24.3763 30 24.0776 30 23.7091V7.58401C30 7.23015 29.8594 6.89079 29.6092 6.64057L23.3594 0.390784C23.1092 0.140567 22.7698 0 22.416 0ZM9.18089 24.1811L5.81935 20.8225C5.69411 20.6974 5.62374 20.5276 5.62374 20.3506V6.12408C5.62374 5.84775 5.84775 5.62374 6.12408 5.62374H20.3506C20.5276 5.62374 20.6974 5.69411 20.8225 5.81935L24.1811 9.18089C24.3061 9.30598 24.3763 9.47557 24.3763 9.6524V23.8759C24.3763 24.1522 24.1522 24.3763 23.8759 24.3763H9.6524C9.47557 24.3763 9.30598 24.3061 9.18089 24.1811Z" fill="black"/>
<path d="M14.5287 9.97226L9.97196 14.529C9.71144 14.7896 9.71144 15.212 9.97196 15.4725L14.5287 20.0293C14.7893 20.2898 15.2117 20.2898 15.4722 20.0293L20.029 15.4725C20.2895 15.212 20.2895 14.7896 20.029 14.529L15.4722 9.97226C15.2117 9.71174 14.7893 9.71174 14.5287 9.97226Z" fill="#F33736"/>
<path d="M159.996 4.67078H165.135V8.47651H159.996V4.67078ZM160.191 10.0877H164.941V24.3106H160.191V10.0877Z" fill="black"/>
<path d="M158.176 15.2546V24.3106H153.426V14.5046C153.426 14.2268 153.333 13.9675 153.148 13.7268C152.981 13.486 152.75 13.3008 152.454 13.1712C152.176 13.023 151.861 12.949 151.509 12.949C150.231 12.949 149.528 13.486 149.398 14.5601H144.537C144.611 13.5786 144.944 12.7175 145.537 11.9767C146.148 11.2359 146.963 10.6618 147.981 10.2544C149 9.84696 150.167 9.64325 151.481 9.64325C152.833 9.64325 154.009 9.884 155.009 10.3655C156.009 10.8285 156.787 11.4767 157.343 12.31C157.898 13.1434 158.176 14.1249 158.176 15.2546ZM154.204 19.1993C154.204 20.3289 153.991 21.3012 153.565 22.1161C153.157 22.9309 152.574 23.5606 151.815 24.005C151.074 24.4495 150.194 24.6717 149.176 24.6717C148.268 24.6717 147.453 24.4773 146.731 24.0884C146.027 23.6809 145.463 23.1346 145.037 22.4494C144.629 21.7642 144.426 20.9864 144.426 20.116C144.426 18.727 144.796 17.6621 145.537 16.9214C146.296 16.1806 147.416 15.7639 148.898 15.6713L152.315 15.4769C152.722 15.4398 153.009 15.3565 153.176 15.2268C153.343 15.0787 153.426 14.8565 153.426 14.5601L153.454 18.3937L150.676 18.5048C150.194 18.5418 149.824 18.6715 149.565 18.8937C149.324 19.1159 149.204 19.4215 149.204 19.8104C149.204 20.2178 149.37 20.5512 149.704 20.8104C150.037 21.0512 150.481 21.1716 151.037 21.1716C151.481 21.1716 151.88 21.079 152.231 20.8938C152.602 20.6901 152.889 20.4215 153.093 20.0882C153.315 19.7548 153.426 19.3752 153.426 18.9492L154.204 19.1993Z" fill="black"/>
<path d="M141.054 20L143.176 22.1213L141.054 24.2426L138.933 22.1213L141.054 20Z" fill="#F33736"/>
<path d="M122.257 17.1436C122.257 15.625 122.562 14.3009 123.174 13.1712C123.803 12.023 124.664 11.1433 125.757 10.5322C126.868 9.90251 128.165 9.58768 129.646 9.58768C130.979 9.58768 132.174 9.83769 133.23 10.3377C134.285 10.8377 135.128 11.56 135.757 12.5045C136.406 13.449 136.767 14.5972 136.841 15.9491H132.035C132.017 15.1157 131.794 14.5138 131.368 14.1434C130.942 13.7731 130.368 13.5879 129.646 13.5879C129.109 13.5879 128.646 13.7268 128.257 14.0046C127.868 14.2823 127.572 14.6898 127.368 15.2268C127.164 15.7454 127.063 16.3843 127.063 17.1436C127.063 18.2918 127.285 19.1807 127.729 19.8104C128.192 20.44 128.831 20.7549 129.646 20.7549C130.35 20.7549 130.915 20.5975 131.341 20.2826C131.785 19.9493 132.017 19.403 132.035 18.6437H136.841C136.674 20.6067 135.933 22.116 134.619 23.1717C133.304 24.2273 131.646 24.7551 129.646 24.7551C128.165 24.7551 126.868 24.4402 125.757 23.8106C124.664 23.1809 123.803 22.292 123.174 21.1438C122.562 19.9956 122.257 18.6622 122.257 17.1436Z" fill="black"/>
<path d="M115.631 4.67078H120.77V8.47651H115.631V4.67078ZM115.825 10.0877H120.576V24.3106H115.825V10.0877Z" fill="black"/>
<path d="M105.394 10.0877H114.422V13.8379H105.394V10.0877ZM114.422 20.3382V24.3106H112.727C111.672 24.3106 110.755 24.1347 109.977 23.7828C109.2 23.4124 108.588 22.8754 108.144 22.1716C107.718 21.4494 107.505 20.5697 107.505 19.5326V6.3931H112.255V18.8937C112.255 19.4122 112.357 19.7826 112.561 20.0048C112.765 20.2271 113.07 20.3382 113.478 20.3382H114.422Z" fill="black"/>
<path d="M104.296 15.2546V24.3106H99.5456V14.5046C99.5456 14.2268 99.453 13.9675 99.2678 13.7268C99.1011 13.486 98.8696 13.3008 98.5733 13.1712C98.2955 13.023 97.9807 12.949 97.6288 12.949C96.351 12.949 95.6473 13.486 95.5176 14.5601H90.6563C90.7304 13.5786 91.0637 12.7175 91.6563 11.9767C92.2675 11.2359 93.0823 10.6618 94.1009 10.2544C95.1195 9.84696 96.2862 9.64325 97.6011 9.64325C98.953 9.64325 100.129 9.884 101.129 10.3655C102.129 10.8285 102.907 11.4767 103.462 12.31C104.018 13.1434 104.296 14.1249 104.296 15.2546ZM100.323 19.1993C100.323 20.3289 100.11 21.3012 99.6845 22.1161C99.2771 22.9309 98.6937 23.5606 97.9344 24.005C97.1936 24.4495 96.314 24.6717 95.2954 24.6717C94.3879 24.6717 93.5731 24.4773 92.8508 24.0884C92.1471 23.6809 91.5823 23.1346 91.1563 22.4494C90.7489 21.7642 90.5452 20.9864 90.5452 20.116C90.5452 18.727 90.9156 17.6621 91.6563 16.9214C92.4156 16.1806 93.5361 15.7639 95.0176 15.6713L98.4344 15.4769C98.8419 15.4398 99.1289 15.3565 99.2956 15.2268C99.4623 15.0787 99.5456 14.8565 99.5456 14.5601L99.5734 18.3937L96.7955 18.5048C96.314 18.5418 95.9436 18.6715 95.6843 18.8937C95.4435 19.1159 95.3232 19.4215 95.3232 19.8104C95.3232 20.2178 95.4898 20.5512 95.8232 20.8104C96.1565 21.0512 96.601 21.1716 97.1566 21.1716C97.6011 21.1716 97.9992 21.079 98.3511 20.8938C98.7215 20.6901 99.0085 20.4215 99.2122 20.0882C99.4345 19.7548 99.5456 19.3752 99.5456 18.9492L100.323 19.1993Z" fill="black"/>
<path d="M84.114 16.4491C84.114 15.5417 83.9195 14.8842 83.5306 14.4768C83.1417 14.0509 82.6231 13.8379 81.975 13.8379C81.5861 13.8379 81.2342 13.9397 80.9194 14.1434C80.6045 14.3472 80.3545 14.6342 80.1693 15.0046C80.0027 15.375 79.9193 15.7917 79.9193 16.2547L78.8637 16.088C78.8637 14.7361 79.1137 13.5786 79.6137 12.6156C80.1323 11.6341 80.7805 10.884 81.5583 10.3655C82.3546 9.84695 83.1509 9.58768 83.9473 9.58768C84.8918 9.58768 85.7344 9.81917 86.4752 10.2822C87.216 10.7266 87.7901 11.3841 88.1975 12.2545C88.6234 13.1249 88.8364 14.1897 88.8364 15.4491V24.3106H84.114V16.4491ZM75.1969 16.4491C75.1969 15.5417 75.0024 14.8842 74.6135 14.4768C74.2431 14.0509 73.7338 13.8379 73.0857 13.8379C72.6968 13.8379 72.3449 13.9397 72.0301 14.1434C71.7152 14.3472 71.4652 14.6342 71.28 15.0046C71.1133 15.375 71.03 15.7917 71.03 16.2547L69.9744 16.088C69.9744 14.7361 70.2244 13.5786 70.7244 12.6156C71.243 11.6341 71.8912 10.884 72.669 10.3655C73.4468 9.84695 74.2431 9.58768 75.058 9.58768C76.0025 9.58768 76.8358 9.81917 77.5581 10.2822C78.2989 10.7266 78.873 11.3841 79.2804 12.2545C79.7063 13.1249 79.9193 14.1897 79.9193 15.4491V24.3106H75.1969V16.4491ZM66.2798 10.0877H71.03V24.3106H66.2798V10.0877Z" fill="black"/>
<path d="M64.2651 15.2546V24.3106H59.5148V14.5046C59.5148 14.2268 59.4222 13.9675 59.237 13.7268C59.0704 13.486 58.8389 13.3008 58.5426 13.1712C58.2648 13.023 57.9499 12.949 57.5981 12.949C56.3202 12.949 55.6165 13.486 55.4869 14.5601H50.6255C50.6996 13.5786 51.0329 12.7175 51.6256 11.9767C52.2367 11.2359 53.0516 10.6618 54.0701 10.2544C55.0887 9.84696 56.2554 9.64325 57.5703 9.64325C58.9222 9.64325 60.0982 9.884 61.0982 10.3655C62.0983 10.8285 62.8761 11.4767 63.4317 12.31C63.9873 13.1434 64.2651 14.1249 64.2651 15.2546ZM60.2926 19.1993C60.2926 20.3289 60.0797 21.3012 59.6537 22.1161C59.2463 22.9309 58.6629 23.5606 57.9036 24.005C57.1629 24.4495 56.2832 24.6717 55.2646 24.6717C54.3572 24.6717 53.5423 24.4773 52.8201 24.0884C52.1163 23.6809 51.5515 23.1346 51.1255 22.4494C50.7181 21.7642 50.5144 20.9864 50.5144 20.116C50.5144 18.727 50.8848 17.6621 51.6256 16.9214C52.3849 16.1806 53.5053 15.7639 54.9868 15.6713L58.4037 15.4769C58.8111 15.4398 59.0981 15.3565 59.2648 15.2268C59.4315 15.0787 59.5148 14.8565 59.5148 14.5601L59.5426 18.3937L56.7647 18.5048C56.2832 18.5418 55.9128 18.6715 55.6535 18.8937C55.4128 19.1159 55.2924 19.4215 55.2924 19.8104C55.2924 20.2178 55.4591 20.5512 55.7924 20.8104C56.1258 21.0512 56.5702 21.1716 57.1258 21.1716C57.5703 21.1716 57.9685 21.079 58.3203 20.8938C58.6907 20.6901 58.9778 20.4215 59.1815 20.0882C59.4037 19.7548 59.5148 19.3752 59.5148 18.9492L60.2926 19.1993Z" fill="black"/>
<path d="M49.8612 24.3106H37.8884V5.80972H42.6387V19.8659H49.8612V24.3106Z" fill="black"/>
</svg>
