<svg width="342" height="64" viewBox="0 0 342 64" fill="none" xmlns="http://www.w3.org/2000/svg">
<g clip-path="url(#clip0_2_70)">
<path d="M47.4353 0.11335H13.3168C12.5372 0.11335 11.9053 0.745306 11.9053 1.52486V10.9538C11.9053 11.5384 11.4313 12.0124 10.8466 12.0124H1.41771C0.638155 12.0124 0.00619888 12.6444 0.00619888 13.4239V47.5425C0.00619888 48.2912 0.303626 49.0092 0.833043 49.5386L14.0567 62.7623C14.5861 63.2918 15.3042 63.5892 16.0529 63.5892H50.1714C50.951 63.5892 51.583 62.9572 51.583 62.1777V52.7487C51.583 52.1641 52.0569 51.6901 52.6416 51.6901H62.0705C62.8501 51.6901 63.482 51.0582 63.482 50.2786V16.1601C63.482 15.4113 63.1846 14.6933 62.6552 14.1639L49.4315 0.940194C48.9021 0.41077 48.184 0.11335 47.4353 0.11335ZM19.4317 51.2771L12.3191 44.1709C12.0541 43.9062 11.9053 43.5469 11.9053 43.1724V13.071C11.9053 12.4864 12.3792 12.0124 12.9639 12.0124H43.0652C43.4397 12.0124 43.799 12.1613 44.0637 12.4263L51.17 19.5388C51.4344 19.8035 51.583 20.1623 51.583 20.5365V50.6315C51.583 51.2161 51.109 51.6901 50.5243 51.6901H20.4293C20.0552 51.6901 19.6964 51.5416 19.4317 51.2771Z" fill="black"/>
<path d="M30.7473 21.2138L21.1058 30.8553C20.5546 31.4066 20.5546 32.3003 21.1058 32.8515L30.7473 42.4931C31.2986 43.0443 32.1923 43.0443 32.7435 42.4931L42.385 32.8515C42.9363 32.3003 42.9363 31.4066 42.385 30.8553L32.7435 21.2138C32.1923 20.6626 31.2986 20.6626 30.7473 21.2138Z" fill="#F33736"/>
</g>
<path d="M332.007 10.8439L341.958 10.8439V18.8053H332.007V10.8439ZM332.019 22.1758H341.956V51.9292H332.019V22.1758Z" fill="black"/>
<path d="M327.805 32.9852V51.9297H317.868V31.4161C317.868 30.835 317.674 30.2926 317.287 29.789C316.938 29.2853 316.454 28.8979 315.834 28.6267C315.253 28.3168 314.594 28.1618 313.858 28.1618C311.185 28.1618 309.713 29.2853 309.442 31.5323H299.272C299.427 29.4791 300.124 27.6776 301.364 26.1279C302.643 24.5783 304.347 23.3773 306.478 22.525C308.609 21.6727 311.05 21.2465 313.8 21.2465C316.628 21.2465 319.088 21.7501 321.18 22.7574C323.272 23.726 324.9 25.0819 326.062 26.8253C327.224 28.5686 327.805 30.6219 327.805 32.9852ZM319.495 41.2371C319.495 43.6003 319.05 45.6342 318.159 47.3389C317.306 49.0435 316.086 50.3607 314.498 51.2905C312.948 52.2203 311.108 52.6852 308.977 52.6852C307.079 52.6852 305.374 52.2784 303.863 51.4648C302.391 50.6125 301.209 49.4696 300.318 48.0362C299.466 46.6028 299.04 44.9756 299.04 43.1548C299.04 40.2492 299.815 38.0215 301.364 36.4719C302.953 34.9222 305.296 34.0505 308.396 33.8568L315.544 33.45C316.396 33.3726 316.996 33.1982 317.345 32.927C317.694 32.6171 317.868 32.1522 317.868 31.5323L317.926 39.5518L312.115 39.7843C311.108 39.8618 310.333 40.1329 309.79 40.5978C309.287 41.0627 309.035 41.702 309.035 42.5155C309.035 43.3679 309.384 44.0652 310.081 44.6076C310.778 45.1112 311.708 45.363 312.87 45.363C313.8 45.363 314.633 45.1693 315.369 44.7819C316.144 44.3558 316.745 43.794 317.171 43.0967C317.636 42.3993 317.868 41.6051 317.868 40.7141L319.495 41.2371Z" fill="black"/>
<path d="M291.988 42.9109L296.426 47.3486L291.988 51.7862L287.551 47.3486L291.988 42.9109Z" fill="#F33736"/>
<path d="M252.666 36.9359C252.666 33.7591 253.305 30.9891 254.584 28.6259C255.901 26.2239 257.702 24.3837 259.988 23.1052C262.313 21.788 265.025 21.1294 268.124 21.1294C270.913 21.1294 273.412 21.6524 275.62 22.6984C277.829 23.7444 279.591 25.2553 280.909 27.2312C282.265 29.207 283.02 31.6089 283.175 34.4371H273.122C273.083 32.6937 272.618 31.4346 271.727 30.6598C270.836 29.8849 269.635 29.4975 268.124 29.4975C267 29.4975 266.032 29.7881 265.218 30.3692C264.405 30.9503 263.785 31.8026 263.359 32.9262C262.933 34.0109 262.719 35.3475 262.719 36.9359C262.719 39.3379 263.184 41.1974 264.114 42.5147C265.083 43.8319 266.419 44.4905 268.124 44.4905C269.596 44.4905 270.778 44.1612 271.669 43.5026C272.599 42.8052 273.083 41.6623 273.122 40.0739H283.175C282.826 44.1805 281.277 47.338 278.526 49.5462C275.775 51.7545 272.308 52.8586 268.124 52.8586C265.025 52.8586 262.313 52.2 259.988 50.8828C257.702 49.5656 255.901 47.706 254.584 45.304C253.305 42.9021 252.666 40.1127 252.666 36.9359Z" fill="black"/>
<path d="M238.803 10.8439H249.554V18.8053H238.803V10.8439ZM239.21 22.1758H249.147V51.9292H239.21V22.1758Z" fill="black"/>
<path d="M217.389 22.1762H236.276V30.0213H217.389V22.1762ZM236.276 43.6195V51.9296H232.731C230.522 51.9296 228.605 51.5615 226.978 50.8254C225.35 50.0506 224.072 48.9271 223.142 47.4549C222.251 45.944 221.806 44.1038 221.806 41.9343V14.4472H231.743V40.5977C231.743 41.6825 231.956 42.4573 232.382 42.9222C232.808 43.3871 233.447 43.6195 234.3 43.6195H236.276Z" fill="black"/>
<path d="M215.091 32.9852V51.9297H205.153V31.4161C205.153 30.835 204.96 30.2926 204.572 29.789C204.224 29.2853 203.739 28.8979 203.12 28.6267C202.538 28.3168 201.88 28.1618 201.144 28.1618C198.471 28.1618 196.998 29.2853 196.727 31.5323H186.558C186.713 29.4791 187.41 27.6776 188.65 26.1279C189.928 24.5783 191.633 23.3773 193.763 22.525C195.894 21.6727 198.335 21.2465 201.086 21.2465C203.914 21.2465 206.374 21.7501 208.466 22.7574C210.558 23.726 212.185 25.0819 213.347 26.8253C214.51 28.5686 215.091 30.6219 215.091 32.9852ZM206.781 41.2371C206.781 43.6003 206.335 45.6342 205.444 47.3389C204.592 49.0435 203.371 50.3607 201.783 51.2905C200.233 52.2203 198.393 52.6852 196.262 52.6852C194.364 52.6852 192.659 52.2784 191.148 51.4648C189.676 50.6125 188.495 49.4696 187.604 48.0362C186.751 46.6028 186.325 44.9756 186.325 43.1548C186.325 40.2492 187.1 38.0215 188.65 36.4719C190.238 34.9222 192.582 34.0505 195.681 33.8568L202.829 33.45C203.681 33.3726 204.282 33.1982 204.63 32.927C204.979 32.6171 205.153 32.1522 205.153 31.5323L205.212 39.5518L199.4 39.7843C198.393 39.8618 197.618 40.1329 197.076 40.5978C196.572 41.0627 196.32 41.702 196.32 42.5155C196.32 43.3679 196.669 44.0652 197.366 44.6076C198.064 45.1112 198.994 45.363 200.156 45.363C201.086 45.363 201.919 45.1693 202.655 44.7819C203.429 44.3558 204.03 43.794 204.456 43.0967C204.921 42.3993 205.153 41.6051 205.153 40.7141L206.781 41.2371Z" fill="black"/>
<path d="M172.87 35.4831C172.87 33.5848 172.463 32.2095 171.649 31.3572C170.836 30.4661 169.751 30.0206 168.395 30.0206C167.582 30.0206 166.846 30.2337 166.187 30.6598C165.528 31.086 165.005 31.6865 164.618 32.4613C164.269 33.2361 164.095 34.1078 164.095 35.0764L161.887 34.7277C161.887 31.8996 162.41 29.4782 163.456 27.4637C164.54 25.4104 165.896 23.8413 167.524 22.7566C169.189 21.6718 170.855 21.1294 172.521 21.1294C174.497 21.1294 176.26 21.6137 177.809 22.5823C179.359 23.512 180.56 24.8874 181.412 26.7082C182.303 28.5291 182.749 30.7567 182.749 33.3911V51.9289H172.87V35.4831ZM154.216 35.4831C154.216 33.5848 153.809 32.2095 152.995 31.3572C152.221 30.4661 151.155 30.0206 149.799 30.0206C148.986 30.0206 148.25 30.2337 147.591 30.6598C146.932 31.086 146.409 31.6865 146.022 32.4613C145.673 33.2361 145.499 34.1078 145.499 35.0764L143.291 34.7277C143.291 31.8996 143.814 29.4782 144.86 27.4637C145.945 25.4104 147.3 23.8413 148.928 22.7566C150.555 21.6718 152.221 21.1294 153.925 21.1294C155.901 21.1294 157.644 21.6137 159.155 22.5823C160.705 23.512 161.906 24.8874 162.758 26.7082C163.649 28.5291 164.095 30.7567 164.095 33.3911V51.9289H154.216V35.4831ZM135.562 22.1755H145.499V51.9289H135.562V22.1755Z" fill="black"/>
<path d="M131.351 32.9851V51.9297H121.414V31.4161C121.414 30.8349 121.22 30.2926 120.833 29.7889C120.484 29.2853 120 28.8979 119.38 28.6267C118.799 28.3168 118.141 28.1618 117.404 28.1618C114.731 28.1618 113.259 29.2853 112.988 31.5323H102.818C102.973 29.479 103.671 27.6775 104.91 26.1279C106.189 24.5782 107.893 23.3772 110.024 22.5249C112.155 21.6726 114.596 21.2464 117.346 21.2464C120.174 21.2464 122.635 21.7501 124.727 22.7574C126.819 23.7259 128.446 25.0818 129.608 26.8252C130.77 28.5686 131.351 30.6219 131.351 32.9851ZM123.041 41.237C123.041 43.6003 122.596 45.6342 121.705 47.3388C120.852 49.0434 119.632 50.3606 118.044 51.2904C116.494 52.2202 114.654 52.6851 112.523 52.6851C110.625 52.6851 108.92 52.2783 107.409 51.4648C105.937 50.6124 104.755 49.4696 103.864 48.0361C103.012 46.6027 102.586 44.9756 102.586 43.1547C102.586 40.2491 103.361 38.0215 104.91 36.4718C106.499 34.9222 108.843 34.0505 111.942 33.8568L119.09 33.45C119.942 33.3725 120.543 33.1982 120.891 32.927C121.24 32.6171 121.414 32.1522 121.414 31.5323L121.472 39.5518L115.661 39.7842C114.654 39.8617 113.879 40.1329 113.337 40.5978C112.833 41.0627 112.581 41.7019 112.581 42.5155C112.581 43.3678 112.93 44.0651 113.627 44.6075C114.325 45.1112 115.254 45.363 116.417 45.363C117.346 45.363 118.179 45.1693 118.915 44.7819C119.69 44.3557 120.291 43.794 120.717 43.0966C121.182 42.3993 121.414 41.6051 121.414 40.714L123.041 41.237Z" fill="black"/>
<path d="M101.217 51.9281H76.1711V13.2254H86.1083V42.6302H101.217V51.9281Z" fill="black"/>
<defs>
<clipPath id="clip0_2_70">
<rect y="0.11335" width="63.4758" height="63.4758" rx="7.93448" fill="white"/>
</clipPath>
</defs>
</svg>
