<svg width="200" height="200" viewBox="0 0 200 200" fill="none" xmlns="http://www.w3.org/2000/svg">
<g clip-path="url(#clip0_3_215)">
<path d="M148.943 0H41.8137C39.366 0 37.3817 1.9843 37.3817 4.43205V34.0382C37.3817 35.874 35.8934 37.3622 34.0576 37.3622H4.45152C2.00376 37.3622 0.0194635 39.3465 0.0194635 41.7943V148.924C0.0194635 151.275 0.953364 153.53 2.61569 155.192L44.1371 196.713C45.7995 198.376 48.0541 199.31 50.405 199.31H157.535C159.982 199.31 161.967 197.325 161.967 194.877V165.271C161.967 163.436 163.455 161.947 165.291 161.947H194.897C197.345 161.947 199.329 159.963 199.329 157.515V50.3855C199.329 48.0346 198.395 45.78 196.733 44.1176L155.211 2.59623C153.549 0.933878 151.294 0 148.943 0ZM61.0141 160.651L38.6812 138.338C37.8491 137.506 37.3816 136.378 37.3816 135.202V40.6862C37.3816 38.8504 38.8699 37.3622 40.7057 37.3622H135.222C136.398 37.3622 137.526 37.8297 138.357 38.6617L160.67 60.9946C161.5 61.8257 161.967 62.9524 161.967 64.1272V158.623C161.967 160.459 160.479 161.947 158.643 161.947H64.1466C62.9719 161.947 61.8451 161.481 61.0141 160.651Z" fill="black"/>
<path d="M96.5444 66.254L66.2707 96.5277C64.5398 98.2585 64.5398 101.065 66.2707 102.796L96.5444 133.069C98.2752 134.8 101.081 134.8 102.812 133.069L133.086 102.796C134.817 101.065 134.817 98.2585 133.086 96.5277L102.812 66.254C101.081 64.5232 98.2752 64.5232 96.5444 66.254Z" fill="#F33736"/>
</g>
<defs>
<clipPath id="clip0_3_215">
<rect width="199.31" height="199.31" rx="24.9137" fill="white"/>
</clipPath>
</defs>
</svg>
