<svg width="30" height="30" viewBox="0 0 30 30" fill="none" xmlns="http://www.w3.org/2000/svg">
<path d="M22.416 0H6.29086C5.92242 0 5.62374 0.298676 5.62374 0.667111V5.12341C5.62374 5.39974 5.39974 5.62374 5.12341 5.62374H0.667111C0.298676 5.62374 0 5.92242 0 6.29086V22.416C0 22.7698 0.14057 23.1092 0.390784 23.3594L6.64057 29.6092C6.89079 29.8594 7.23015 30 7.58401 30H23.7091C24.0776 30 24.3763 29.7013 24.3763 29.3329V24.8766C24.3763 24.6003 24.6003 24.3763 24.8766 24.3763H29.3329C29.7013 24.3763 30 24.0776 30 23.7091V7.58401C30 7.23015 29.8594 6.89079 29.6092 6.64057L23.3594 0.390784C23.1092 0.140567 22.7698 0 22.416 0ZM9.18089 24.1811L5.81935 20.8225C5.69411 20.6974 5.62374 20.5276 5.62374 20.3506V6.12408C5.62374 5.84775 5.84775 5.62374 6.12408 5.62374H20.3506C20.5276 5.62374 20.6974 5.69411 20.8225 5.81935L24.1811 9.18089C24.3061 9.30598 24.3763 9.47557 24.3763 9.6524V23.8759C24.3763 24.1522 24.1522 24.3763 23.8759 24.3763H9.6524C9.47557 24.3763 9.30598 24.3061 9.18089 24.1811Z" fill="black"/>
<path d="M14.5285 9.97247L9.97172 14.5293C9.7112 14.7898 9.7112 15.2122 9.97172 15.4727L14.5285 20.0295C14.789 20.29 15.2114 20.29 15.4719 20.0295L20.0287 15.4727C20.2893 15.2122 20.2893 14.7898 20.0287 14.5293L15.4719 9.97247C15.2114 9.71195 14.789 9.71195 14.5285 9.97247Z" fill="#F33736"/>
</svg>
