<svg width="166" height="30" viewBox="0 0 166 30" fill="none" xmlns="http://www.w3.org/2000/svg">
<path d="M22.416 0H6.29086C5.92242 0 5.62374 0.298676 5.62374 0.667111V5.12341C5.62374 5.39974 5.39974 5.62374 5.12341 5.62374H0.667111C0.298676 5.62374 0 5.92242 0 6.29086V22.416C0 22.7698 0.14057 23.1092 0.390784 23.3594L6.64057 29.6092C6.89079 29.8594 7.23015 30 7.58401 30H23.7091C24.0776 30 24.3763 29.7013 24.3763 29.3329V24.8766C24.3763 24.6003 24.6003 24.3763 24.8766 24.3763H29.3329C29.7013 24.3763 30 24.0776 30 23.7091V7.58401C30 7.23015 29.8594 6.89079 29.6092 6.64057L23.3594 0.390784C23.1092 0.140567 22.7698 0 22.416 0ZM9.18089 24.1811L5.81935 20.8225C5.69411 20.6974 5.62374 20.5276 5.62374 20.3506V6.12408C5.62374 5.84775 5.84775 5.62374 6.12408 5.62374H20.3506C20.5276 5.62374 20.6974 5.69411 20.8225 5.81935L24.1811 9.18089C24.3061 9.30598 24.3763 9.47557 24.3763 9.6524V23.8759C24.3763 24.1522 24.1522 24.3763 23.8759 24.3763H9.6524C9.47557 24.3763 9.30598 24.3061 9.18089 24.1811Z" fill="black"/>
<path d="M14.5285 9.97247L9.97172 14.5293C9.7112 14.7898 9.7112 15.2122 9.97172 15.4727L14.5285 20.0295C14.789 20.29 15.2114 20.29 15.4719 20.0295L20.0287 15.4727C20.2893 15.2122 20.2893 14.7898 20.0287 14.5293L15.4719 9.97247C15.2114 9.71195 14.789 9.71195 14.5285 9.97247Z" fill="#F33736"/>
<path d="M159.996 4.6709H165.135V8.47663H159.996V4.6709ZM160.191 10.0878H164.941V24.3107H160.191V10.0878Z" fill="black"/>
<path d="M158.176 15.2547V24.3107H153.426V14.5047C153.426 14.2269 153.334 13.9676 153.148 13.7268C152.982 13.4861 152.75 13.3009 152.454 13.1713C152.176 13.0231 151.861 12.949 151.509 12.949C150.232 12.949 149.528 13.4861 149.398 14.5602H144.537C144.611 13.5787 144.944 12.7175 145.537 11.9768C146.148 11.236 146.963 10.6619 147.982 10.2545C149 9.84702 150.167 9.64331 151.482 9.64331C152.834 9.64331 154.01 9.88406 155.01 10.3656C156.01 10.8286 156.787 11.4767 157.343 12.3101C157.899 13.1435 158.176 14.125 158.176 15.2547ZM154.204 19.1993C154.204 20.329 153.991 21.3013 153.565 22.1161C153.158 22.931 152.574 23.5606 151.815 24.0051C151.074 24.4496 150.195 24.6718 149.176 24.6718C148.269 24.6718 147.454 24.4773 146.731 24.0884C146.028 23.681 145.463 23.1347 145.037 22.4495C144.629 21.7643 144.426 20.9864 144.426 20.116C144.426 18.7271 144.796 17.6622 145.537 16.9214C146.296 16.1807 147.417 15.764 148.898 15.6714L152.315 15.4769C152.722 15.4399 153.01 15.3565 153.176 15.2269C153.343 15.0788 153.426 14.8565 153.426 14.5602L153.454 18.3937L150.676 18.5048C150.195 18.5419 149.824 18.6715 149.565 18.8937C149.324 19.116 149.204 19.4216 149.204 19.8105C149.204 20.2179 149.37 20.5512 149.704 20.8105C150.037 21.0513 150.482 21.1716 151.037 21.1716C151.482 21.1716 151.88 21.079 152.232 20.8938C152.602 20.6901 152.889 20.4216 153.093 20.0882C153.315 19.7549 153.426 19.3753 153.426 18.9493L154.204 19.1993Z" fill="black"/>
<path d="M141.055 20.0001L143.176 22.1214L141.055 24.2428L138.933 22.1214L141.055 20.0001Z" fill="#F33736"/>
<path d="M122.258 17.1438C122.258 15.6252 122.563 14.3011 123.175 13.1714C123.804 12.0232 124.665 11.1435 125.758 10.5324C126.869 9.90272 128.166 9.58789 129.647 9.58789C130.98 9.58789 132.175 9.8379 133.231 10.3379C134.286 10.8379 135.129 11.5602 135.758 12.5047C136.407 13.4492 136.768 14.5974 136.842 15.9493H132.036C132.018 15.1159 131.795 14.514 131.369 14.1437C130.943 13.7733 130.369 13.5881 129.647 13.5881C129.11 13.5881 128.647 13.727 128.258 14.0048C127.869 14.2826 127.573 14.69 127.369 15.227C127.165 15.7456 127.064 16.3845 127.064 17.1438C127.064 18.292 127.286 19.1809 127.73 19.8106C128.193 20.4403 128.832 20.7551 129.647 20.7551C130.351 20.7551 130.916 20.5977 131.342 20.2828C131.786 19.9495 132.018 19.4032 132.036 18.6439H136.842C136.675 20.6069 135.934 22.1163 134.62 23.1719C133.305 24.2275 131.647 24.7553 129.647 24.7553C128.166 24.7553 126.869 24.4404 125.758 23.8108C124.665 23.1811 123.804 22.2922 123.175 21.144C122.563 19.9958 122.258 18.6624 122.258 17.1438Z" fill="black"/>
<path d="M115.631 4.6709H120.77V8.47663H115.631V4.6709ZM115.825 10.0878H120.576V24.3107H115.825V10.0878Z" fill="black"/>
<path d="M105.395 10.0882H114.423V13.8383H105.395V10.0882ZM114.423 20.3387V24.3111H112.728C111.673 24.3111 110.756 24.1351 109.978 23.7833C109.2 23.4129 108.589 22.8758 108.145 22.1721C107.719 21.4498 107.506 20.5701 107.506 19.5331V6.39355H112.256V18.8941C112.256 19.4127 112.358 19.7831 112.562 20.0053C112.765 20.2275 113.071 20.3387 113.478 20.3387H114.423Z" fill="black"/>
<path d="M104.296 15.2549V24.3109H99.5453V14.5049C99.5453 14.2271 99.4528 13.9678 99.2676 13.7271C99.1009 13.4863 98.8694 13.3011 98.5731 13.1715C98.2953 13.0233 97.9805 12.9493 97.6286 12.9493C96.3508 12.9493 95.647 13.4863 95.5174 14.5605H90.656C90.7301 13.5789 91.0635 12.7178 91.6561 11.977C92.2672 11.2362 93.0821 10.6621 94.1006 10.2547C95.1192 9.84727 96.2859 9.64355 97.6008 9.64355C98.9527 9.64355 100.129 9.88431 101.129 10.3658C102.129 10.8288 102.907 11.477 103.462 12.3103C104.018 13.1437 104.296 14.1252 104.296 15.2549ZM100.323 19.1996C100.323 20.3292 100.11 21.3015 99.6842 22.1164C99.2768 22.9312 98.6935 23.5609 97.9342 24.0053C97.1934 24.4498 96.3137 24.672 95.2951 24.672C94.3877 24.672 93.5728 24.4776 92.8506 24.0887C92.1469 23.6813 91.582 23.1349 91.1561 22.4497C90.7486 21.7645 90.5449 20.9867 90.5449 20.1163C90.5449 18.7273 90.9153 17.6625 91.6561 16.9217C92.4154 16.1809 93.5358 15.7642 95.0174 15.6716L98.4342 15.4772C98.8416 15.4401 99.1287 15.3568 99.2953 15.2272C99.462 15.079 99.5453 14.8568 99.5453 14.5605L99.5731 18.394L96.7952 18.5051C96.3137 18.5421 95.9433 18.6718 95.6841 18.894C95.4433 19.1162 95.3229 19.4218 95.3229 19.8107C95.3229 20.2181 95.4896 20.5515 95.823 20.8107C96.1563 21.0515 96.6008 21.1719 97.1563 21.1719C97.6008 21.1719 97.999 21.0793 98.3509 20.8941C98.7212 20.6904 99.0083 20.4218 99.212 20.0885C99.4342 19.7551 99.5453 19.3755 99.5453 18.9495L100.323 19.1996Z" fill="black"/>
<path d="M84.1135 16.4493C84.1135 15.5419 83.919 14.8844 83.5301 14.477C83.1412 14.0511 82.6227 13.8381 81.9745 13.8381C81.5856 13.8381 81.2337 13.9399 80.9189 14.1437C80.604 14.3474 80.354 14.6344 80.1688 15.0048C80.0022 15.3752 79.9188 15.7919 79.9188 16.2549L78.8632 16.0882C78.8632 14.7363 79.1132 13.5788 79.6133 12.6158C80.1318 11.6343 80.78 10.8842 81.5578 10.3657C82.3541 9.84716 83.1505 9.58789 83.9468 9.58789C84.8913 9.58789 85.7339 9.81938 86.4747 10.2824C87.2155 10.7268 87.7896 11.3843 88.197 12.2547C88.6229 13.1251 88.8359 14.19 88.8359 15.4493V24.3108H84.1135V16.4493ZM75.1964 16.4493C75.1964 15.5419 75.0019 14.8844 74.613 14.477C74.2426 14.0511 73.7334 13.8381 73.0852 13.8381C72.6963 13.8381 72.3444 13.9399 72.0296 14.1437C71.7147 14.3474 71.4647 14.6344 71.2795 15.0048C71.1129 15.3752 71.0295 15.7919 71.0295 16.2549L69.9739 16.0882C69.9739 14.7363 70.2239 13.5788 70.7239 12.6158C71.2425 11.6343 71.8907 10.8842 72.6685 10.3657C73.4463 9.84716 74.2426 9.58789 75.0575 9.58789C76.002 9.58789 76.8354 9.81938 77.5576 10.2824C78.2984 10.7268 78.8725 11.3843 79.2799 12.2547C79.7059 13.1251 79.9188 14.19 79.9188 15.4493V24.3108H75.1964V16.4493ZM66.2793 10.0879H71.0295V24.3108H66.2793V10.0879Z" fill="black"/>
<path d="M64.2663 15.2549V24.3109H59.516V14.5049C59.516 14.2271 59.4235 13.9678 59.2383 13.7271C59.0716 13.4863 58.8401 13.3011 58.5438 13.1715C58.266 13.0233 57.9512 12.9493 57.5993 12.9493C56.3215 12.9493 55.6177 13.4863 55.4881 14.5605H50.6267C50.7008 13.5789 51.0342 12.7178 51.6268 11.977C52.2379 11.2362 53.0528 10.6621 54.0713 10.2547C55.0899 9.84727 56.2566 9.64355 57.5715 9.64355C58.9234 9.64355 60.0994 9.88431 61.0995 10.3658C62.0995 10.8288 62.8773 11.477 63.4329 12.3103C63.9885 13.1437 64.2663 14.1252 64.2663 15.2549ZM60.2939 19.1996C60.2939 20.3292 60.0809 21.3015 59.6549 22.1164C59.2475 22.9312 58.6642 23.5609 57.9049 24.0053C57.1641 24.4498 56.2844 24.672 55.2658 24.672C54.3584 24.672 53.5435 24.4776 52.8213 24.0887C52.1176 23.6813 51.5527 23.1349 51.1268 22.4497C50.7193 21.7645 50.5156 20.9867 50.5156 20.1163C50.5156 18.7273 50.886 17.6625 51.6268 16.9217C52.3861 16.1809 53.5065 15.7642 54.9881 15.6716L58.4049 15.4772C58.8123 15.4401 59.0994 15.3568 59.266 15.2272C59.4327 15.079 59.516 14.8568 59.516 14.5605L59.5438 18.394L56.7659 18.5051C56.2844 18.5421 55.914 18.6718 55.6548 18.894C55.414 19.1162 55.2936 19.4218 55.2936 19.8107C55.2936 20.2181 55.4603 20.5515 55.7937 20.8107C56.127 21.0515 56.5715 21.1719 57.127 21.1719C57.5715 21.1719 57.9697 21.0793 58.3215 20.8941C58.6919 20.6904 58.979 20.4218 59.1827 20.0885C59.4049 19.7551 59.516 19.3755 59.516 18.9495L60.2939 19.1996Z" fill="black"/>
<path d="M49.8615 24.3104H37.8887V5.80957H42.6389V19.8658H49.8615V24.3104Z" fill="black"/>
</svg>
